<svg width="65" height="65" viewBox="0 0 65 65" fill="none" xmlns="http://www.w3.org/2000/svg">
<g clip-path="url(#clip0)">
<g clip-path="url(#clip1)">
<path d="M32.1284 64.4448C49.8015 64.4448 64.1284 50.1179 64.1284 32.4448C64.1284 14.7717 49.8015 0.444824 32.1284 0.444824C14.4553 0.444824 0.128418 14.7717 0.128418 32.4448C0.128418 50.1179 14.4553 64.4448 32.1284 64.4448Z" fill="url(#paint0_linear)"/>
<path d="M33.9303 35.4815C33.4298 35.4147 32.8959 35.3813 32.362 35.3813C31.6947 35.3813 31.0607 35.4481 30.4267 35.5482C32.4955 40.7202 30.5601 46.7932 25.6217 49.6629C24.4538 50.3636 23.1858 50.7974 21.9512 51.031C23.6196 55.202 27.6571 58.1384 32.362 58.1384C37.2004 58.1384 41.338 55.0352 42.9397 50.6639C41.5382 50.4637 40.1701 49.9966 38.8688 49.2625C34.0638 46.3928 32.0951 40.5534 33.9303 35.4815Z" fill="#E2C9E1"/>
<path d="M53.1168 32.0779C52.2493 33.2124 51.1815 34.1801 49.8801 34.9475C45.0751 37.7505 39.0689 36.5492 35.6319 32.4116C35.3316 32.812 35.0313 33.2458 34.7644 33.7129C34.4307 34.2802 34.1638 34.8808 33.9302 35.4814C39.4025 36.2489 43.6069 40.9872 43.6069 46.7265C43.6069 48.0946 43.3733 49.3959 42.9396 50.6305C47.3441 51.2645 51.8822 49.1957 54.218 45.0581C56.6538 40.787 56.0532 35.6149 53.1168 32.0779Z" fill="#E2C9E1"/>
<path d="M33.9303 35.4812C32.095 40.5532 34.0637 46.4259 38.8687 49.2289C40.1701 49.9963 41.5382 50.4301 42.9397 50.6303C43.3734 49.4291 43.607 48.0943 43.607 46.7263C43.607 40.9869 39.4026 36.2487 33.9303 35.4812Z" fill="#892885"/>
<path d="M33.8301 29.3417C34.0303 29.8088 34.2639 30.3093 34.4974 30.7431C34.8311 31.3104 35.1982 31.8443 35.5986 32.3448C39.0021 27.9402 45.1752 26.6388 50.0803 29.5085C51.2482 30.2092 52.2493 31.0434 53.0835 32.0445C55.8196 28.5074 56.3202 23.5022 53.951 19.398C51.5152 15.1602 46.7769 13.0914 42.2722 13.8922C42.8061 15.1936 43.1064 16.6618 43.1064 18.1633C43.1398 23.7692 39.1022 28.4407 33.8301 29.3417Z" fill="#E2C9E1"/>
<path d="M50.1136 29.5418C45.2085 26.6721 39.0354 27.9735 35.6318 32.3781C39.0687 36.5491 45.075 37.7169 49.88 34.914C51.1814 34.1466 52.2491 33.1789 53.1167 32.0444C52.2825 31.0767 51.2815 30.2091 50.1136 29.5418Z" fill="#892885"/>
<path d="M30.3263 29.4084C30.8268 29.4751 31.3607 29.5085 31.8946 29.5085C32.5619 29.5085 33.1959 29.4418 33.8299 29.3417C31.7611 24.1696 33.6965 18.0966 38.6349 15.227C39.8028 14.5262 41.0708 14.0924 42.3054 13.8589C40.637 9.68786 36.5995 6.75146 31.8946 6.75146C27.0562 6.75146 22.9186 9.8547 21.3169 14.2259C22.7184 14.4261 24.0864 14.8933 25.3878 15.6274C30.1928 18.497 32.1615 24.3365 30.3263 29.4084Z" fill="#E2C9E1"/>
<path d="M33.8303 29.3418C39.1024 28.4075 43.14 23.7693 43.14 18.1634C43.14 16.6619 42.8397 15.2271 42.3058 13.8923C41.0378 14.1259 39.8032 14.5597 38.6353 15.2604C33.6968 18.1301 31.7281 24.1697 33.8303 29.3418Z" fill="#892885"/>
<path d="M14.3765 29.9423C19.1815 27.1394 25.1877 28.3406 28.6247 32.4783C28.925 32.0779 29.2253 31.6441 29.4922 31.1769C29.8259 30.6097 30.0929 30.009 30.3264 29.4084C24.8541 28.641 20.6497 23.9027 20.6497 18.1634C20.6497 16.7953 20.8833 15.4939 21.317 14.2593C16.9125 13.6253 12.3744 15.6941 10.0386 19.8318C7.60276 24.0695 8.20339 29.2416 11.1398 32.812C12.0074 31.6774 13.1085 30.7098 14.3765 29.9423Z" fill="#E2C9E1"/>
<path d="M30.3267 29.4084C32.1619 24.3364 30.1932 18.4637 25.3882 15.6607C24.0868 14.8933 22.7187 14.4595 21.3173 14.2593C20.8835 15.4605 20.6499 16.7953 20.6499 18.1633C20.6499 23.9027 24.8543 28.6409 30.3267 29.4084Z" fill="#892885"/>
<path d="M30.4269 35.5481C30.2267 35.0809 29.9931 34.5804 29.7595 34.1466C29.4258 33.5793 29.0588 33.0454 28.6584 32.5449C25.2548 36.9495 19.0817 38.2509 14.1766 35.3812C13.0087 34.6805 12.0077 33.8463 11.1735 32.8452C8.43729 36.3823 7.93677 41.3875 10.3059 45.4917C12.7418 49.7295 17.48 51.7983 21.9847 50.9975C21.4508 49.6961 21.1505 48.2279 21.1505 46.7264C21.1172 41.1205 25.1547 36.449 30.4269 35.5481Z" fill="#E2C9E1"/>
<path d="M30.4264 35.5481C25.1542 36.4824 21.1167 41.1206 21.1167 46.7264C21.1167 48.228 21.417 49.6628 21.9509 50.9975C23.2189 50.7639 24.4535 50.3302 25.6214 49.6294C30.5599 46.7598 32.4952 40.7201 30.4264 35.5481Z" fill="#892885"/>
<path d="M14.1428 35.348C19.0479 38.2177 25.221 36.9163 28.6245 32.5117C25.1876 28.3407 19.1814 27.1728 14.3764 29.9757C13.075 30.7432 12.0072 31.7109 11.1396 32.8454C11.9739 33.8131 12.9749 34.6806 14.1428 35.348Z" fill="#892885"/>
</g>
</g>
<defs>
<linearGradient id="paint0_linear" x1="11.3246" y1="53.2457" x2="51.3188" y2="13.2515" gradientUnits="userSpaceOnUse">
<stop stop-color="#EBE4ED"/>
<stop offset="1" stop-color="#EBE4ED" stop-opacity="0"/>
</linearGradient>
<clipPath id="clip0">
<rect width="64" height="64" fill="white" transform="translate(0.128418 0.444824)"/>
</clipPath>
<clipPath id="clip1">
<rect width="64" height="64" fill="white" transform="translate(0.128418 0.444824)"/>
</clipPath>
</defs>
</svg>
