<svg width="89" height="17" viewBox="0 0 89 17" fill="none" xmlns="http://www.w3.org/2000/svg">
<path d="M16.6933 4.66528H20.2865C22.9279 4.66528 24.4678 6.66769 24.4678 9.27721C24.4678 11.8761 22.9279 13.8465 20.2865 13.8465H16.6933V4.66528ZM20.2758 12.6004C22.1258 12.6004 23.0776 11.1518 23.0776 9.27721C23.0776 7.41327 22.1258 5.91146 20.2758 5.91146H18.0728V12.5897H20.2758V12.6004Z" fill="black"/>
<path d="M25.8474 5.36829C25.8474 4.88899 26.2644 4.52686 26.7456 4.52686C27.2376 4.52686 27.6439 4.88899 27.6439 5.36829C27.6439 5.84759 27.2376 6.20973 26.7456 6.20973C26.2644 6.19908 25.8474 5.84759 25.8474 5.36829ZM26.0933 7.62633H27.4087V13.8572H26.0933V7.62633Z" fill="black"/>
<path d="M35.5574 7.62626V12.9199C35.5574 15.817 34.2207 16.9566 32.114 16.9566C30.9376 16.9566 29.8362 16.3389 29.248 15.2311L30.3602 14.6879C30.7131 15.359 31.4296 15.7424 32.114 15.7424C33.4293 15.7424 34.2421 14.9968 34.2421 13.0264V12.9412C33.8143 13.6228 32.916 13.985 32.0819 13.985C30.3816 13.985 28.9807 12.7068 28.9807 10.7257C28.9807 8.73397 30.3816 7.48779 32.0712 7.48779C32.9374 7.48779 33.8143 7.83928 34.2421 8.5316V7.62626H35.5574ZM34.2314 10.7257C34.2314 9.4689 33.2048 8.73397 32.2316 8.73397C31.1622 8.73397 30.2853 9.54346 30.2853 10.7257C30.2853 11.8867 31.1515 12.7494 32.2316 12.7494C33.301 12.7494 34.2314 11.9826 34.2314 10.7257Z" fill="black"/>
<path d="M37.2685 5.36829C37.2685 4.88899 37.6856 4.52686 38.1668 4.52686C38.6587 4.52686 39.0651 4.88899 39.0651 5.36829C39.0651 5.84759 38.6587 6.20973 38.1668 6.20973C37.6856 6.19908 37.2685 5.84759 37.2685 5.36829ZM37.5145 7.62633H38.8298V13.8572H37.5145V7.62633Z" fill="black"/>
<path d="M43.9629 8.72336H42.6262V13.8572H41.3108V8.72336H40.188V7.62629H41.3108V5.2937H42.6262V7.62629H43.9629V8.72336Z" fill="black"/>
<path d="M51.2776 7.62626V13.8572H49.9622V12.9199C49.5452 13.6228 48.6469 13.985 47.8021 13.985C46.1017 13.985 44.7008 12.7068 44.7008 10.7257C44.7008 8.73397 46.1017 7.48779 47.7914 7.48779C48.679 7.48779 49.5452 7.83928 49.9622 8.54225V7.62626H51.2776ZM49.9516 10.7257C49.9516 9.4689 48.9249 8.73397 47.9518 8.73397C46.8824 8.73397 46.0055 9.54346 46.0055 10.7257C46.0055 11.8867 46.8717 12.7494 47.9518 12.7494C49.0105 12.7494 49.9516 11.9826 49.9516 10.7257Z" fill="black"/>
<path d="M53.2346 4.2605H54.5393V13.8678H53.2239V4.2605H53.2346Z" fill="black"/>
<path d="M56.6032 9.2134C56.6032 6.61453 58.6778 4.50562 61.2872 4.50562C62.7416 4.50562 64.0141 5.14468 64.8376 6.15654L63.8216 6.96602C63.2335 6.23109 62.3245 5.78375 61.3086 5.78375C59.4371 5.78375 57.9827 7.31751 57.9827 9.2134C57.9827 11.0986 59.4157 12.6431 61.3086 12.6431C62.3245 12.6431 63.2335 12.1744 63.8216 11.4608L64.8376 12.2703C64.0248 13.2821 62.7522 13.9212 61.2872 13.9212C58.6885 13.9212 56.6032 11.8229 56.6032 9.2134Z" fill="black"/>
<path d="M71.9918 7.5625V13.7934H70.6765V12.8454C70.3129 13.6017 69.3076 13.9212 68.6553 13.9212C67.0726 13.9212 66.1208 12.8987 66.1422 11.12V7.5625H67.4576V11.0348C67.4576 12.0466 68.0778 12.6324 68.8799 12.6324C69.6926 12.6324 70.6872 12.1744 70.6872 10.8963V7.5625H71.9918Z" fill="black"/>
<path d="M80.5363 10.6726C80.5363 12.643 79.114 13.9318 77.4351 13.9318C76.5902 13.9318 75.6812 13.5697 75.2642 12.8667V13.804H73.9488V4.18604H75.2642V8.47843C75.6812 7.77546 76.5475 7.42397 77.4351 7.42397C79.1247 7.43462 80.5363 8.6808 80.5363 10.6726ZM79.2103 10.6619C79.2103 9.49029 78.3547 8.67015 77.264 8.67015C76.3015 8.67015 75.2642 9.40508 75.2642 10.6619C75.2642 11.9187 76.2159 12.6856 77.264 12.6856C78.3547 12.6856 79.2103 11.8229 79.2103 10.6619Z" fill="black"/>
<path d="M88.0114 11.2052H83.028C83.1991 12.2171 83.9477 12.707 84.9743 12.707C85.7015 12.707 86.3752 12.3981 86.7281 11.823L87.7761 12.3449C87.2307 13.3887 86.0971 13.9212 84.9101 13.9212C83.1028 13.9212 81.6805 12.6325 81.6805 10.6514C81.6805 8.67025 83.1242 7.42407 84.9101 7.42407C86.696 7.42407 88.0434 8.6809 88.0434 10.6407C88.0328 10.8218 88.0221 11.0028 88.0114 11.2052ZM86.7174 10.1508C86.5998 9.18151 85.8726 8.64895 84.9101 8.64895C83.9477 8.64895 83.2205 9.12825 83.0387 10.1508H86.7174Z" fill="black"/>
<path d="M3.46485 3.45093H0V6.89123V10.3315V10.3422V13.7825H10.3838V10.3422V10.3315V6.89123H6.919V10.3315H3.46485V6.89123H6.919V3.45093H3.46485Z" fill="black"/>
<path d="M10.3839 0H6.91901V3.45096H10.3839V0Z" fill="black"/>
</svg>
