<svg width="75" height="65" viewBox="0 0 75 65" fill="none" xmlns="http://www.w3.org/2000/svg">
<g clip-path="url(#clip0)">
<g clip-path="url(#clip1)">
<path d="M43.0082 0.444824H0.128418V44.8285H43.0082V0.444824Z" fill="url(#paint0_linear)"/>
<path d="M74.0603 9.61792H18.1938V64.4448H74.0603V9.61792Z" fill="#E2C9E1"/>
<path d="M74.1281 9.61792H18.2617V11.9465H74.1281V9.61792Z" fill="#F80A5B"/>
<path d="M18.2617 10.1889L18.2617 64.416L20.375 64.416L20.375 10.1889L18.2617 10.1889Z" fill="#F80A5B"/>
<path d="M69.2883 30.1516H27.397V40.489H69.2883V30.1516Z" fill="url(#paint1_linear)"/>
<path d="M69.2543 49.1328H50.9844V51.9906H69.2543V49.1328Z" fill="#EDECEC"/>
<path d="M69.2543 54.178H50.9844V57.0358H69.2543V54.178Z" fill="#EDECEC"/>
<path d="M69.2543 59.2585H50.9844V62.1163H69.2543V59.2585Z" fill="#EDECEC"/>
<path d="M45.5644 49.1328H27.2944V51.9906H45.5644V49.1328Z" fill="#EDECEC"/>
<path d="M45.5644 54.178H27.2944V57.0358H45.5644V54.178Z" fill="#EDECEC"/>
<path d="M45.5644 59.2585H27.2944V62.1163H45.5644V59.2585Z" fill="#EDECEC"/>
<path d="M57.8011 17.8738H49.2456V21.5077H57.8011V17.8738Z" fill="#892885"/>
<path d="M69.2879 17.8738H60.7324V21.5077H69.2879V17.8738Z" fill="#892885"/>
</g>
</g>
<defs>
<linearGradient id="paint0_linear" x1="-0.404921" y1="1.89463" x2="36.7071" y2="34.5939" gradientUnits="userSpaceOnUse">
<stop stop-color="#EBE4ED"/>
<stop offset="1" stop-color="#EBE4ED" stop-opacity="0"/>
</linearGradient>
<linearGradient id="paint1_linear" x1="27.8481" y1="29.7342" x2="71.8007" y2="40.9088" gradientUnits="userSpaceOnUse">
<stop stop-color="#68296A"/>
<stop offset="1" stop-color="#68296A" stop-opacity="0"/>
</linearGradient>
<clipPath id="clip0">
<rect width="74" height="64" fill="white" transform="translate(0.128418 0.444824)"/>
</clipPath>
<clipPath id="clip1">
<rect width="74" height="64" fill="white" transform="translate(0.128418 0.444824)"/>
</clipPath>
</defs>
</svg>
