<svg style="fill:#BDB6B8" xmlns="http://www.w3.org/2000/svg" viewBox="0 0 257.16 54"><path d="M32.32,5.87V7.62H26.79l0,.49c-.29,4.09-1.76,6.45-7,7.48l-.81-1.73c3.28-.46,5.72-1.37,5.87-5.77l0-.47h-6.6V5.87Zm-3-4.37V3.23H19.25V1.51Zm.8,1.73A11.13,11.13,0,0,0,29.7.51L30.93.32A14.77,14.77,0,0,1,31.47,3Zm2.07-.39A13.37,13.37,0,0,0,31.66.24L32.83,0a13.79,13.79,0,0,1,.59,2.59Z"/><path d="M44,9a26.92,26.92,0,0,0-4.74-2L40,5.25a27.19,27.19,0,0,1,4.77,1.81Zm-3.77,4.18c6.4-.52,9.31-2.56,11.48-9.21l1.83.81c-2.27,6.35-5.16,9.58-12.83,10.43ZM45.34,5A28.37,28.37,0,0,0,40.61,3.2l.81-1.78A31.54,31.54,0,0,1,46.2,3.2Zm5.15-1.68a15.84,15.84,0,0,0-.8-2.73l1.39-.3A13.59,13.59,0,0,1,51.94,3ZM53,3A13.89,13.89,0,0,0,52.07.42l1.37-.3a16.87,16.87,0,0,1,.91,2.5Z"/><path d="M65,6.75A14.78,14.78,0,0,1,69,9.16a10.23,10.23,0,0,0,2-4.42H65.06a13.49,13.49,0,0,1-4.45,4.1L59.34,7.41A11.35,11.35,0,0,0,65,.8l2,.39A19.16,19.16,0,0,1,66.16,3h7.21c-.44,2.62-1.88,10.43-11.88,12.75L60.39,14a13.61,13.61,0,0,0,7.21-3.45,16.78,16.78,0,0,0-3.89-2.54Z"/><path d="M84,5.77c0,7.11-2.4,9.28-3.25,10l-1.47-1.47c.78-.63,2.76-2.17,2.76-8.19V1.44h2ZM88.61,13c3.89-.93,4.77-5.69,4.94-6.55l1.73.75c-1.56,7.45-7,7.91-8.56,8V.93h1.9Z"/><path d="M115.26,2.37V4.23h-5.18v8.21h6.09V14.3H101.9V12.44h6.16V4.23h-5.25V2.37Z"/><path d="M137,7v2H122V7Z"/><path d="M148.47,9a26.92,26.92,0,0,0-4.74-2l.76-1.76a27.19,27.19,0,0,1,4.77,1.81Zm-3.77,4.18c6.4-.52,9.31-2.56,11.48-9.21l1.83.81c-2.27,6.35-5.16,9.58-12.83,10.43ZM149.79,5a28.37,28.37,0,0,0-4.72-1.84l.81-1.78a31.54,31.54,0,0,1,4.77,1.78Zm5.15-1.68a15.84,15.84,0,0,0-.8-2.73l1.39-.3A13.59,13.59,0,0,1,156.39,3ZM157.4,3a13.89,13.89,0,0,0-.88-2.59l1.37-.3a16.87,16.87,0,0,1,.91,2.5Z"/><path d="M175.09,5.16V6.77h-4.15v6.18h4.84v1.69H164.38V12.95h4.79V6.77h-4.1V5.16Z"/><path d="M187.59,6a18.93,18.93,0,0,0-5.11-2.49l.91-1.66a18.77,18.77,0,0,1,5.25,2.32Zm-4.94,7c6.33-.46,10-2.89,12.36-10.09l1.91.86c-2.49,7.23-6.14,10.43-13.64,11.36Z"/><path d="M207.87,8.7a23.12,23.12,0,0,0-4.74-1.93L204,5.06a19.39,19.39,0,0,1,4.74,1.86ZM204,12.91c6.38-.32,9.36-2.61,11.51-9.19l1.84.81c-2.07,5.79-5,9.78-12.88,10.41Zm5.26-8A23.86,23.86,0,0,0,204.4,3l.88-1.68a20.66,20.66,0,0,1,4.89,1.88Z"/><path d="M239,7v2h-15V7Z"/><path d="M77.59,35.61a.65.65,0,0,0,.65-.66V31.64a.79.79,0,0,0-.65-.69A76.86,76.86,0,0,0,57,31c-3.23.53-4.18,1.23-4.36,4.22A143,143,0,0,0,53,52.31a.68.68,0,0,0,.67.64h4.93a.63.63,0,0,0,.65-.63V45.91H76.48a.66.66,0,0,0,.4-.17.67.67,0,0,0,.21-.46V42a.63.63,0,0,0-.19-.45.74.74,0,0,0-.43-.17H59.23V35.61Z"/><path d="M111.28,31a78.71,78.71,0,0,0-22,0,4.66,4.66,0,0,0-3.39,3.41,50.19,50.19,0,0,0,0,15.14A3.9,3.9,0,0,0,89.31,53c7.4,1.06,15.87,1.61,22,0a4.26,4.26,0,0,0,3.4-3.43c.52-4.15.79-12.06,0-15.14C114.15,32.34,113.28,31.44,111.28,31Zm-3.13,16.26a1.1,1.1,0,0,1-1.1,1.09H93.58a1.1,1.1,0,0,1-1.09-1.09V36.69a1.09,1.09,0,0,1,1.09-1.09H107a1.1,1.1,0,0,1,1.1,1.09Z"/><path d="M221.56,52.31a127.72,127.72,0,0,0,0-20.64c0-.55-.7-.63-.7-.63h-5a.68.68,0,0,0-.68.62q-.3,3.7-.38,7.41H200.89q-.08-3.69-.38-7.38a.71.71,0,0,0-.71-.65h-5a.7.7,0,0,0-.69.65,127.56,127.56,0,0,0,0,20.65.66.66,0,0,0,.67.61h5a.7.7,0,0,0,.7-.62q.36-4.43.4-8.88h13.84q.05,4.45.4,8.89a.66.66,0,0,0,.67.61h5A.7.7,0,0,0,221.56,52.31Z"/><path d="M256.74,52.33a127.59,127.59,0,0,0,0-20.69A.7.7,0,0,0,256,31h-5.35a1.14,1.14,0,0,0-.4.15c-.15.11-.21.47-.21.47v8.74l.33,5L237.5,31.65a3.24,3.24,0,0,0-.63-.45c-.45-.22-.6-.18-.6-.18h-5.11a.71.71,0,0,0-.71.62,127.7,127.7,0,0,0,0,20.68.71.71,0,0,0,.69.64h5.32a.76.76,0,0,0,.41-.16.69.69,0,0,0,.21-.48V43.63l-.32-5,12.9,13.71a5.78,5.78,0,0,0,.54.41,1.58,1.58,0,0,0,.69.23h5.17A.66.66,0,0,0,256.74,52.33Z"/><path d="M6.81,52.31a127.76,127.76,0,0,0,0-20.65.7.7,0,0,0-.7-.62h-5a.73.73,0,0,0-.68.62,127.63,127.63,0,0,0,0,20.65.69.69,0,0,0,.68.64h5A.72.72,0,0,0,6.81,52.31Z"/><path d="M43,52.3a127.58,127.58,0,0,0,0-20.67.82.82,0,0,0-.71-.61H37a.61.61,0,0,0-.62.63v8.74l.34,5L23.8,31.65a4.09,4.09,0,0,0-.64-.51,1.66,1.66,0,0,0-.59-.13H17.45a.73.73,0,0,0-.69.63,127.76,127.76,0,0,0,0,20.68.72.72,0,0,0,.71.62h5.27a.5.5,0,0,0,.45-.17.71.71,0,0,0,.19-.44v-8.7l-.33-5L35.94,52.29a1.73,1.73,0,0,0,1.23.66H42.3A.7.7,0,0,0,43,52.3Z"/><path d="M151.58,45.84a4.17,4.17,0,0,0-3.95-4.21c2.42-.29,3.59-1.14,3.76-3.67a20.61,20.61,0,0,0,0-2.69c-.42-2.7-1.48-3.85-5.58-4.24A170.86,170.86,0,0,0,126,31a1.54,1.54,0,0,0-1.63,1.39,128.63,128.63,0,0,0,0,19.38c.06.76.32,1.23,1.48,1.25,7,.14,14.8.23,19.32,0,5.44-.31,6.18-1.76,6.45-4.28A11.13,11.13,0,0,0,151.58,45.84ZM130.89,35.62h4.45v0H143c1.25,0,1.88.25,1.88,1.28V38.6c0,1-.62,1.29-1.88,1.29H130.89Zm14.5,11c0,1.45-.65,1.76-2.18,1.76h-3.56v0h-8.76V43.45h12.32c1.53,0,2.18.28,2.18,1.71Z"/><path d="M180.6,52.33a1,1,0,0,0,.88.61H187a.41.41,0,0,0,.39-.57,146.75,146.75,0,0,0-11.6-20.69,1.47,1.47,0,0,0-1.06-.64h-4.7a1.35,1.35,0,0,0-1,.66,146.89,146.89,0,0,0-11.6,20.69c-.14.3.09.56.42.56h5.52a.92.92,0,0,0,.86-.54l1.45-3h13.53Zm-12.83-7.25,4.66-9.59,4.66,9.59Z"/></svg>