<svg
   xmlns="http://www.w3.org/2000/svg"
   width="520.03302"
   height="183.28325"
   viewBox="0 0 520.03302 183.28325">
  <path
     style="fill:#e95d08;fill-opacity:1"
     d="m 201.91513,169.04863 c -7.28208,-5.27146 -13.6291,-9.96052 -14.10451,-10.42014 -0.82113,-0.79387 0.23129,-2.34339 21.03717,-30.9739 12.04584,-16.57602 22.30892,-30.800232 22.80682,-31.609348 1.16843,-1.898728 1.18429,-6.292975 0.0302,-8.380063 C 231.22417,86.832033 220.9446,72.527319 208.84136,55.876923 196.73812,39.226532 187.02869,25.429255 187.26485,25.21631 187.92262,24.623209 212.52172,6.8268263 214.02739,5.8547747 L 215.3514,5 l 2.99401,4.0859253 c 1.6467,2.2472617 10.87066,14.9499427 20.49767,28.2281747 9.62702,13.278238 17.6412,24.146173 17.80928,24.150975 0.16808,0.0047 9.52231,-12.6878 20.78715,-28.205772 11.26486,-15.517973 20.6612,-28.1512583 20.88078,-28.07397 0.21957,0.077288 6.5998,4.6398321 14.17829,10.138995 9.28719,6.739035 13.69387,10.220499 13.51771,10.679553 -0.14374,0.374594 -10.20331,14.361221 -22.35459,31.081389 -12.15128,16.720173 -22.30657,30.961423 -22.5673,31.647221 -0.72102,1.896394 -0.56758,4.973465 0.33528,6.724133 0.44515,0.863154 4.81963,7.086086 9.72109,13.828746 29.43469,40.49171 35.07319,48.31669 35.06192,48.65823 -0.0131,0.39708 -26.93927,20.08631 -27.81514,20.33927 -0.27686,0.08 -9.70564,-12.49977 -20.95284,-27.95495 -11.2472,-15.45518 -20.64205,-28.0333 -20.87745,-27.95138 -0.2354,0.0819 -9.39987,12.50641 -20.36549,27.60996 -10.96562,15.10355 -20.18703,27.72776 -20.49201,28.0538 -0.42555,0.45493 -3.63376,-1.63626 -13.79464,-8.99167 z M 30.78199,157.26394 C 19.07611,154.7559 9.76082,145.86733 6.15842,133.76833 5.35917,131.08398 5.28184,126.84281 5.14652,78.269143 L 5,25.67642 l 17.66827,0 17.66828,0 0,47.336943 c 0,52.130067 -0.13848,49.771237 3.03533,51.706247 1.5587,0.95031 2.42741,0.98973 21.8512,0.99149 l 20.22797,0.002 0,16.18238 0,16.18237 -25.62209,-0.04 c -20.77968,-0.0324 -26.26938,-0.17866 -29.04697,-0.77377 z m 88.99531,-65.632074 0,-66.445821 18.14388,0 18.14388,0 0,66.445821 0,66.445824 -18.14388,0 -18.14388,0 0,-66.445824 z m 237.34153,0 0,-66.445821 18.14388,0 18.14388,0 0,66.445821 0,66.445824 -18.14388,0 -18.14388,0 0,-66.445824 z m 102.73358,65.640774 c -1.88795,-0.39881 -5.30004,-1.6235 -7.58244,-2.72155 -5.56617,-2.67785 -11.66532,-8.67433 -14.36877,-14.12691 -3.75131,-7.566 -3.50814,-3.45468 -3.67632,-62.155037 l -0.15068,-52.592723 17.67026,0 17.67026,0 0,47.336943 c 0,51.558217 -0.10012,49.685417 2.7564,51.558087 1.25324,0.82159 3.08561,0.91673 21.98523,1.14148 l 20.61807,0.24519 0.12931,16.05978 0.12926,16.05979 -25.87397,-0.04 c -20.84058,-0.0322 -26.54175,-0.18104 -29.30661,-0.76507 z" />
</svg>
