<svg width="107" height="65" viewBox="0 0 107 65" fill="none" xmlns="http://www.w3.org/2000/svg">
<g clip-path="url(#clip0)">
<g clip-path="url(#clip1)">
<path d="M77.2789 22.4873H12.3335V34.7653H77.2789V22.4873Z" fill="#E2C9E1"/>
<path d="M61.849 0.444824H0.128418V57.0974H61.849V0.444824Z" fill="url(#paint0_linear)"/>
<path d="M95.3448 39.2767C101.301 39.2767 106.129 34.8329 106.129 29.3513C106.129 23.8696 101.301 19.4258 95.3448 19.4258C89.3891 19.4258 84.561 23.8696 84.561 29.3513C84.561 34.8329 89.3891 39.2767 95.3448 39.2767Z" fill="#892885"/>
<path d="M95.0326 31.4137V26.9988H94.9285L93.9923 28.9968H93.2988V28.9645L94.3737 26.741H95.726V31.4459H97.3557V32.026H93.4028V31.4459H95.0326V31.4137Z" fill="#EEEEEE"/>
<path d="M77.2789 48.1064H12.3335V60.3844H77.2789V48.1064Z" fill="#E2C9E1"/>
<path d="M6.6123 28.9644H71.0029" stroke="#F80A5B" stroke-width="3" stroke-miterlimit="10"/>
<path d="M6.6123 54.1648H71.0029" stroke="#F80A5B" stroke-width="3" stroke-miterlimit="10"/>
<path d="M95.3448 64.4447C101.301 64.4447 106.129 60.0009 106.129 54.5192C106.129 49.0375 101.301 44.5938 95.3448 44.5938C89.3891 44.5938 84.561 49.0375 84.561 54.5192C84.561 60.0009 89.3891 64.4447 95.3448 64.4447Z" fill="#892885"/>
<path d="M97.2869 56.6461V57.2262H93.3687V56.3238C93.3687 56.066 93.4033 55.8727 93.5074 55.6793C93.6114 55.486 93.7154 55.3571 93.8888 55.2282C94.0622 55.0993 94.2355 55.0026 94.4782 54.9059C94.721 54.8092 94.9637 54.7448 95.2758 54.6803C95.7612 54.5837 96.1079 54.4225 96.3507 54.2614C96.5587 54.068 96.6627 53.8425 96.6627 53.5847V53.5524C96.6627 53.4235 96.6281 53.2946 96.5934 53.1657C96.5587 53.0368 96.4547 52.9079 96.3507 52.8113C96.2466 52.7146 96.1079 52.6179 95.9346 52.5534C95.7612 52.489 95.5878 52.4568 95.3451 52.4568C94.929 52.4568 94.5823 52.5857 94.3742 52.8113C94.1315 53.0368 94.0275 53.3591 94.0275 53.7458V54.068H93.334V53.6813C93.334 53.4235 93.3687 53.198 93.4727 52.9724C93.5767 52.7468 93.6807 52.5534 93.8541 52.3923C94.0275 52.2312 94.2355 52.0701 94.4782 51.9734C94.721 51.8767 95.033 51.8123 95.3451 51.8123C95.6919 51.8123 95.9693 51.8445 96.212 51.9412C96.4547 52.0378 96.6627 52.1667 96.8361 52.2956C97.0095 52.4568 97.1135 52.6179 97.2175 52.8113C97.3216 53.0046 97.3215 53.198 97.3215 53.3913V53.5202C97.3215 53.9391 97.1829 54.2614 96.9055 54.5514C96.6281 54.8415 96.1773 55.0348 95.5878 55.1637C95.0677 55.2604 94.6863 55.4215 94.4089 55.5827C94.1662 55.7438 94.0275 56.0016 94.0275 56.3561V56.5816H97.2869V56.6461Z" fill="#EEEEEE"/>
</g>
</g>
<defs>
<linearGradient id="paint0_linear" x1="-0.448809" y1="2.11785" x2="47.598" y2="49.2665" gradientUnits="userSpaceOnUse">
<stop stop-color="#EBE4ED"/>
<stop offset="1" stop-color="#EBE4ED" stop-opacity="0"/>
</linearGradient>
<clipPath id="clip0">
<rect width="106" height="64" fill="white" transform="translate(0.128418 0.444824)"/>
</clipPath>
<clipPath id="clip1">
<rect width="106" height="64" fill="white" transform="translate(0.128418 0.444824)"/>
</clipPath>
</defs>
</svg>
