<svg width="193" height="36" viewBox="0 0 193 36" fill="none" xmlns="http://www.w3.org/2000/svg">
<path d="M99.7839 27.32H103.385V35.215H99.7839V27.32ZM170.416 27.32H173.988V35.215H170.387V27.32H170.416ZM147.976 29.7712V27.7761C146.997 27.2915 145.585 26.9495 143.655 26.9495C139.824 26.9495 139.306 28.5741 139.306 29.4007C139.306 30.7972 140.17 31.4528 141.61 31.9373C143.31 32.5358 144.721 32.3363 144.721 33.0489C144.721 33.2484 144.462 33.4479 143.742 33.4479C142.244 33.4479 140.688 32.8778 139.651 32.2793V34.4739C140.976 35.101 142.59 35.5 143.915 35.5C146.853 35.5 148.466 34.3314 148.466 32.7923C148.466 31.2533 147.256 30.6547 145.24 30.1702C143.943 29.8567 143.108 29.8567 143.108 29.3721C143.108 29.1156 143.483 28.8876 144.174 28.8876C145.413 28.8591 146.795 29.2296 147.976 29.7712ZM192.51 29.7712V27.7761C191.531 27.2915 190.119 26.9495 188.189 26.9495C184.358 26.9495 183.84 28.5741 183.84 29.4007C183.84 30.7972 184.704 31.4528 186.144 31.9373C187.844 32.5358 189.255 32.3363 189.255 33.0489C189.255 33.2484 188.967 33.4479 188.276 33.4479C186.778 33.4479 185.222 32.8778 184.185 32.2793V34.4739C185.51 35.101 187.124 35.5 188.449 35.5C191.387 35.5 193 34.3314 193 32.7923C193 31.2533 191.79 30.6547 189.774 30.1702C188.477 29.8567 187.642 29.8567 187.642 29.3721C187.642 29.1156 188.017 28.8876 188.708 28.8876C189.918 28.8591 191.329 29.2296 192.51 29.7712ZM133.141 35.443C136.656 35.443 137.981 34.0749 137.981 32.0513V27.32H134.524V32.2508C134.524 32.8778 133.804 33.3909 133.17 33.3909C132.536 33.3909 131.816 32.8778 131.816 32.2508V27.32H128.359V32.0513C128.331 34.0749 129.656 35.443 133.141 35.443ZM182.515 35.215V33.5334H178.943V31.8518H181.996V30.2272H178.943V29.0016H182.515V27.32H175.544V35.215H182.515ZM149.417 29.0871H151.75V35.215H155.379V29.0871H157.713V27.32H149.417V29.0871ZM115.512 35.215V27.32H111.854V30.9682L108.915 27.32H104.911V35.215H108.57V31.3673L111.566 35.215H115.512ZM89.6154 30.3127L87.9158 27.32H84.5743L87.8006 32.4218V35.215H91.4302V32.3648L94.6276 27.32H91.2861L89.6154 30.3127ZM81.4057 35.215L84.3151 27.32H80.9448L79.2164 32.3078L77.5169 27.32H74.1466L77.056 35.215H81.4057ZM68.1837 27.32L65.2743 35.215H68.6734L68.9327 34.2744H71.5828L71.8421 35.215H75.2412L72.3318 27.32H68.1837ZM69.3936 32.7638L70.2866 29.7142L71.1796 32.7638H69.3936ZM64.6694 35.215V33.5334H61.1263V31.8518H64.1797V30.2272H61.1263V29.0016H64.6694V27.32H57.6984V35.215H64.6694ZM121.936 35.215C125.479 35.215 127.178 33.5619 127.178 31.2533C127.178 28.6596 125.018 27.32 122.109 27.32H117.039V35.215H121.936ZM121.532 32.9919H120.697V29.2296H121.388C122.598 29.2296 123.29 29.9707 123.29 31.1963C123.29 32.1368 122.483 32.9919 121.532 32.9919ZM159.124 27.32V35.215H162.984V32.6783L165.375 35.2435H169.667L166.47 32.1368C167.852 32.0798 168.976 31.1678 168.976 29.7997C168.976 28.2036 167.737 27.3485 166.239 27.3485L159.124 27.32ZM164.194 30.8257H162.955V28.8306H164.252C164.713 28.8306 165.231 29.1726 165.231 29.8567C165.26 30.4552 164.77 30.8257 164.194 30.8257ZM52.5421 27.32V30.0847H49.9784V27.32H46.3488V35.215H49.9784V32.3648H52.5421V35.215H56.1716V27.32H52.5421ZM68.3566 12.0717H74.6075V25.0114H68.3566V12.0717ZM58.7066 12.0717L56.4597 16.6034L54.184 12.0717H48.1636L46.3488 25.0114H52.1964L52.7149 19.5961L56.4597 25.0114L60.1757 19.5961L60.6942 25.0114H66.5418L64.727 12.0717H58.7066ZM89.7018 12.0717H76.4222V15.6059H80.0518V25.0114H86.0722V15.6059H89.7018V12.0717ZM105.545 17.2305V13.4967C103.385 12.4707 100.821 11.8151 98.3724 11.8151C93.7634 11.8151 91.2573 13.3542 91.2573 15.8909C91.2573 18.0855 92.64 18.9121 95.0021 19.7956C97.7387 20.8217 99.467 20.3086 99.467 21.1352C99.467 21.4487 99.3806 21.7052 98.3148 21.7052C95.8663 21.7052 93.5042 20.7362 91.7758 19.7671V23.6148C93.9651 24.5839 96.644 25.2109 98.8333 25.2109C101.8 25.2109 105.977 24.5269 105.977 21.0782C105.977 18.684 103.874 17.43 101.051 16.7744C98.9197 16.2899 97.5082 16.4324 97.5082 15.6629C97.5082 15.2638 98.0555 15.1213 99.0061 15.1213C100.994 15.1783 103.817 16.1189 105.545 17.2305ZM143.281 12.0717H149.532V25.0114H143.281V12.0717ZM186.749 12.0717H193V25.0114H186.749V12.0717ZM165.951 17.2305V13.4967C163.791 12.4707 161.227 11.8151 158.779 11.8151C154.17 11.8151 151.663 13.3542 151.663 15.8909C151.663 18.0855 153.046 18.9121 155.408 19.7956C158.145 20.8217 159.873 20.3086 159.873 21.1352C159.873 21.4487 159.758 21.7052 158.721 21.7052C156.272 21.7052 153.91 20.7362 152.182 19.7671V23.6148C154.371 24.5839 157.05 25.2109 159.239 25.2109C162.206 25.2109 166.383 24.5269 166.383 21.0782C166.383 18.684 164.28 17.43 161.457 16.7744C159.326 16.2899 157.914 16.4324 157.914 15.6629C157.914 15.2638 158.462 15.1213 159.412 15.1213C161.371 15.1783 164.223 16.1189 165.951 17.2305ZM115.973 25.2394C120.034 25.2394 124.067 23.6148 124.067 19.8811V12.0717H117.96V19.9951C117.96 21.0497 117.096 21.9332 115.973 21.9332C114.849 21.9332 113.985 21.0497 113.985 19.9951V12.0717H107.878V19.8811C107.878 23.6148 111.882 25.2394 115.973 25.2394ZM136.511 25.0114C140.112 25.0114 141.322 23.3583 141.322 21.5627C141.322 19.8811 140.343 18.7695 138.96 18.2565C139.997 17.7435 140.573 16.7174 140.573 15.5774C140.573 13.4967 138.672 12.0717 136.656 12.0717H126.199V25.0114H136.511ZM134.063 14.8078C134.754 14.8078 135.158 15.2923 135.158 15.8339C135.158 16.4324 134.668 16.8029 134.092 16.8029H132.536V14.8078H134.063ZM134.092 21.7622H132.536V19.7956H134.149C134.668 19.7956 135.186 20.1661 135.186 20.7647C135.186 21.3062 134.754 21.7622 134.092 21.7622ZM178.223 12.0717V16.6319H174.679V12.0717H168.457V25.0114H174.679V20.3941H178.223V25.0114H184.445V12.0717H178.223ZM20.2506 23.6433L26.9912 12.0717L20.2506 0.5L13.51 12.0717L20.2506 23.6433ZM20.2506 23.6433L26.9912 35.215H40.5012L33.7606 23.6433H20.2506ZM20.2506 23.6433H6.7406L0 35.215H13.51L20.2506 23.6433Z" fill="#BDB6B8"/>
</svg>
