<?xml version="1.0" encoding="utf-8"?>
<!-- Generator: Adobe Illustrator 18.1.1, SVG Export Plug-In . SVG Version: 6.00 Build 0)  -->
<svg version="1.1" xmlns="http://www.w3.org/2000/svg" xmlns:xlink="http://www.w3.org/1999/xlink" x="0px"
	 y="0px" viewBox="0 0 169.6 29.6" enable-background="new 0 0 169.6 29.6" xml:space="preserve">
<g>
	<path fill="#BDB6B8" d="M99.2,7.6c-6,0-10.9,4.9-10.9,10.9c0,6,4.9,10.9,10.9,10.9c6,0,10.9-4.9,10.9-10.9
		C110.1,12.5,105.2,7.6,99.2,7.6 M99.2,21.8c-1.8,0-3.3-1.5-3.3-3.3c0-1.8,1.5-3.3,3.3-3.3c1.8,0,3.3,1.5,3.3,3.3
		C102.5,20.3,101,21.8,99.2,21.8"/>
	<path fill="#BDB6B8" d="M30.8,7.5c2,0,3.7-1.7,3.7-3.7c0-2.1-1.7-3.7-3.7-3.7c-2,0-3.7,1.7-3.7,3.7C27.1,5.8,28.8,7.5,30.8,7.5"/>
	<path fill="#BDB6B8" d="M30.8,8.3c-2.1,0-3.8,1.6-3.9,3.7h0v13.6c0,2.1,1.7,3.8,3.9,3.8c2.1,0,3.9-1.7,3.9-3.8v0V12h0
		C34.6,9.9,32.9,8.3,30.8,8.3"/>
	<path fill="#BDB6B8" d="M60,7.4c2,0,3.7-1.7,3.7-3.7C63.7,1.7,62,0,60,0c-2,0-3.7,1.7-3.7,3.7C56.3,5.8,57.9,7.4,60,7.4"/>
	<path fill="#BDB6B8" d="M60,8.3c-2.1,0-3.8,1.6-3.9,3.7h0v13.6c0,2.1,1.7,3.8,3.9,3.8c2.1,0,3.9-1.7,3.9-3.8v0V12h0
		C63.8,9.9,62.1,8.3,60,8.3"/>
	<path fill="#BDB6B8" d="M83.5,7.6c-2.2,0-3.9,1.7-3.9,3.8v0l0,3.1c0,0.8-0.5,1.5-1.3,1.5c-0.8,0-1.3-0.7-1.3-1.5l0-3.1v0
		c0-2.1-1.8-3.8-3.9-3.8c-2.2,0-3.9,1.7-3.9,3.8v0v14.3c0,2.1,1.8,3.8,3.9,3.8c2.2,0,3.9-1.7,3.9-3.8l0-2.1c0-0.8,0.4-1.5,1.3-1.5
		c0.8,0,1.3,0.7,1.3,1.5l0,2.1c0,2.1,1.8,3.8,3.9,3.8c2.2,0,3.9-1.7,3.9-3.8V11.4h0c0,0,0,0,0,0C87.4,9.3,85.6,7.6,83.5,7.6"/>
	<path fill="#BDB6B8" d="M142.8,14.8l-5.6,0l-0.1,0c-0.2,0-0.4-0.2-0.4-0.4c0-0.2,0.2-0.4,0.4-0.4l0.1,0h6.4h0
		c1.8,0,3.2-1.4,3.2-3.2c0-1.8-1.4-3.2-3.2-3.2c0,0,0,0,0,0v0h-6l-0.9,0c-3.7,0-6.6,3-6.6,6.8c0,3.7,3,6.8,6.6,6.8l0.5,0h6.4h0.1
		c0.2,0,0.4,0.2,0.4,0.4c0,0.2-0.2,0.4-0.4,0.4h-0.1h-10.9h0c-1.8,0-3.2,1.5-3.2,3.2c0,1.8,1.4,3.2,3.2,3.2c0,0,0,0,0,0v0h9.6l0.5,0
		c3.8,0,6.7-3.1,6.7-6.8C149.4,17.2,146.6,14.8,142.8,14.8"/>
	<path fill="#BDB6B8" d="M166.3,22L166.3,22h-8.9l-0.1,0c-0.2,0-0.4-0.2-0.4-0.4c0-0.2,0.2-0.4,0.4-0.4h0.1h6.3h0
		c1.8,0,3.2-1.4,3.2-3.2c0-1.8-1.4-3.2-3.2-3.2c0,0,0,0,0,0v0h-6.1c-0.2,0-0.4-0.2-0.4-0.4c0-0.2,0.2-0.4,0.4-0.4l0,0h5
		c1.7,0,3.2-1.5,3.2-3.2c0-1.8-1.4-3.2-3.2-3.2h-4.5c0,0-1.2,0-1.6,0.1c-0.5,0.1-5.4,0.8-5.9,6.6c-0.1,1.6,0.8,3.3,0.8,3.3
		s0.1,0.2,0,0.3c-0.1,0.2-1,1.6-1,3.7c0,2.2,1.7,5.7,5.1,6.5c1.2,0.3,3.4,0.3,3.4,0.3h7.4h0c1.8,0,3.2-1.4,3.2-3.2
		C169.6,23.5,168.1,22,166.3,22"/>
	<path fill="#BDB6B8" d="M128.9,11.4L128.9,11.4L128.9,11.4c0-2.1-1.8-3.9-3.9-3.9c-2.2,0-3.9,1.7-3.9,3.8v0l0,9
		c0,0.7-0.4,1.3-1.1,1.3c-0.7,0-1.1-0.6-1.1-1.3l0-9v0c0-2.1-1.8-3.8-3.9-3.8c-2.2,0-3.9,1.7-3.9,3.8c0,0,0,0,0,0h0v9.2h0
		c0,5,4,9,8.9,9c4.9,0,8.9-4,8.9-9L128.9,11.4z"/>
	<path fill="#BDB6B8" d="M54.9,23.3l-4.3-6.3c0,0-0.3-0.3,0-0.6l2.6-3.3l0,0c0.9-1.1,0.9-2.8-0.2-3.9c-1.1-1.1-3-1.2-4.2-0.1v0l0,0
		c0,0,0,0,0,0c0,0,0,0,0,0l-3.9,3.5c0,0-1,0.8-1.3-0.6v1v-1.7c0-2.1-1.7-3.8-3.9-3.8c-2.1,0-3.9,1.7-3.9,3.8v14.2
		c0,2.1,1.7,3.8,3.9,3.8c2.1,0,3.9-1.7,3.9-3.8v0v-3.1c0-0.3,0.2-0.7,0.6-0.7c0.3,0.1,0.8,0.8,0.8,0.8l3.3,4.7
		c0,0.1,0.1,0.2,0.1,0.2c1.2,1.7,3.7,2.1,5.5,0.9C55.6,27.4,56.1,25.1,54.9,23.3L54.9,23.3z"/>
	<path fill="#BDB6B8" d="M19.2,7.4c-1.9,0-3.5,0.6-4.7,1.9c-0.2,0.3-0.7,0.8-1.1,1.4c-0.3,0.5-0.4,0.5-0.5,0.5
		c-0.1,0-0.2,0.1-0.5-0.5c-0.4-0.6-1.1-1.4-1.1-1.4c-1.1-1.1-2.7-1.8-4.7-1.8c-3.7,0-6.5,2.7-6.5,6.1L0,14.7v11
		c0,2.1,1.7,3.8,3.9,3.8c2.1,0,3.9-1.7,3.9-3.8l0-9.4c0-0.4,0.2-0.7,0.6-0.7c0.4,0,0.6,0.3,0.6,0.7v9.4c0,2.1,1.7,3.8,3.9,3.8
		c2.1,0,3.9-1.7,3.9-3.8l0-9.4v0c0-0.4,0.2-0.7,0.6-0.7c0.4,0,0.6,0.3,0.6,0.7v9.4c0,2.1,1.7,3.8,3.9,3.8c2.1,0,3.9-1.7,3.9-3.8
		l0-11l-0.1-1.2C25.7,10.1,22.9,7.4,19.2,7.4"/>
</g>
</svg>
