<svg width="82" height="65" viewBox="0 0 82 65" fill="none" xmlns="http://www.w3.org/2000/svg">
<g clip-path="url(#clip0)">
<g clip-path="url(#clip1)">
<path d="M62.427 0.444824H0.128418V64.2927H62.427V0.444824Z" fill="url(#paint0_linear)"/>
<path d="M48.0025 51.5476H10.3638V64.3537H48.0025V51.5476Z" fill="#E2C9E1"/>
<path d="M57.8257 38.7717H22.9302V51.5778H57.8257V38.7717Z" fill="#E2C9E1"/>
<path d="M68.6211 25.9961H35.584V38.8022H68.6211V25.9961Z" fill="#E2C9E1"/>
<path d="M81.1283 25.9961H68.6509V64.4143H81.1283V25.9961Z" fill="#892885"/>
<path d="M68.7098 38.7717H56.2324V51.6386H68.7098V38.7717Z" fill="#892885"/>
<path d="M76.5559 51.5779H43.8433V64.4448H76.5559V51.5779Z" fill="#892885"/>
<path opacity="0.8" d="M56.2623 50.574H22.9302V51.5474H56.2623V50.574Z" fill="url(#paint1_linear)"/>
<path opacity="0.8" d="M68.6512 37.8289H35.6436V38.8022H68.6512V37.8289Z" fill="url(#paint2_linear)"/>
</g>
</g>
<defs>
<linearGradient id="paint0_linear" x1="-0.555421" y1="2.43667" x2="53.0228" y2="49.8208" gradientUnits="userSpaceOnUse">
<stop stop-color="#EBE4ED"/>
<stop offset="1" stop-color="#EBE4ED" stop-opacity="0"/>
</linearGradient>
<linearGradient id="paint1_linear" x1="20.2439" y1="51.0643" x2="56.2156" y2="51.0643" gradientUnits="userSpaceOnUse">
<stop stop-color="#FE0358" stop-opacity="0"/>
<stop offset="1" stop-color="#FE0358"/>
</linearGradient>
<linearGradient id="paint2_linear" x1="32.1557" y1="38.3032" x2="67.7746" y2="38.3032" gradientUnits="userSpaceOnUse">
<stop stop-color="#FE0358" stop-opacity="0"/>
<stop offset="1" stop-color="#FE0358"/>
</linearGradient>
<clipPath id="clip0">
<rect width="81" height="64" fill="white" transform="translate(0.128418 0.444824)"/>
</clipPath>
<clipPath id="clip1">
<rect width="81" height="64" fill="white" transform="translate(0.128418 0.444824)"/>
</clipPath>
</defs>
</svg>
