<svg width="37" height="46" viewBox="0 0 37 46" fill="none" xmlns="http://www.w3.org/2000/svg">
<path d="M6.02102 34.7268H28.5071C28.5071 40.9498 23.4693 46 17.2598 46C11.0502 46 6.02102 40.9498 6.02102 34.7268ZM25.8471 11.9579V22.7346L36.1365 11.9579H25.8471ZM20.7922 11.9579H13.7359V31.457H20.7922V11.9579ZM10.6482 0H0.12793V10.537H10.6482V0ZM9.16 18.5575C9.16 16.4689 7.46649 14.7741 5.38809 14.7741C3.30113 14.7741 1.61617 16.4689 1.61617 18.5575C1.61617 20.6461 3.30968 22.3409 5.38809 22.3409C7.47504 22.3409 9.16 20.6461 9.16 18.5575Z" fill="#F80A5B"/>
</svg>
