<?xml version="1.0" encoding="utf-8"?>
<svg version="1.1" id="soracom" xmlns="http://www.w3.org/2000/svg" xmlns:xlink="http://www.w3.org/1999/xlink"
  x="0px" y="0px" viewBox="0 0 721 142" style="enable-background:new 0 0 721 142;" xml:space="preserve">
<path fill="#34CDD7" d="M71.14-0.01c-39.08,0-70.87,31.79-70.87,70.87s31.79,70.87,70.87,70.87S142,109.93,142,70.85
  S110.21-0.01,71.14-0.01 M12.63,70.85c0-14.23,5.11-27.28,13.58-37.43L95.1,49.8v16.16L31.7,80.88l22.6,46.01
  C30.22,119.64,12.63,97.27,12.63,70.85 M73.69,129.3l14.07-12.08l-8.05-9.37l-14.77,12.68L49.63,89.35l57.83-13.61v-35.7
  L37.09,23.31c9.6-6.89,21.35-10.97,34.04-10.97c32.26,0,58.51,26.25,58.51,58.51C129.65,102.26,104.77,127.96,73.69,129.3
  M97.97,86.81l2.8,9.29l9.7-0.21l-7.96,5.53l3.19,9.16l-7.72-5.87l-7.72,5.87l3.19-9.16l-7.96-5.53l9.7,0.21L97.97,86.81z"/>
<path fill="#FFFFFF" d="M223.09,49.67c-4.24-2.03-9.76-3.59-14-3.59c-4.33,0-10.32,1.2-10.32,7.92c0,4.42,4.79,6.82,10.87,9.76
  c10.04,4.88,19.07,9.58,19.07,22.29c0,16.3-11.05,21.28-22.75,21.28c-8.01,0-17.69-1.93-22.57-4.24l3.41-12.44
  c5.25,2.49,12.71,4.61,18.51,4.61c4.33,0,9.49-1.84,9.49-8.38c0-4.88-3.87-7.92-12.9-11.97c-9.86-4.33-16.67-8.38-16.67-20.08
  c0-16.58,13.45-20.54,22.38-20.54c7.92,0,14.92,1.66,19.16,3.59L223.09,49.67z"/>
<path fill="#FFFFFF" d="M248.7,70.48c0-17.13,7.65-36.75,33.53-36.75c25.98,0,33.62,19.62,33.62,36.85c0,17.32-7.46,37.4-33.53,37.4
  c-25.05,0-33.62-18.79-33.62-37.4V70.48z M263.26,70.48c0,18.7,8.11,25.33,18.98,25.33c11.15,0,19.07-6.82,19.07-25.42
  c0-17.59-7.28-24.69-18.98-24.69c-11.79,0-19.07,7.09-19.07,24.69V70.48z"/>
<path fill="#FFFFFF" d="M368.55,87.89c-3.41-7.37-5.8-9.67-10.87-9.67h-8.57v27.91h-12.9V35.39h17.5c16.4,0,29.66,2.86,29.66,19.71
  c0,9.95-4.88,15.29-11.79,17.59c3.78,1.66,6.08,4.61,7.46,7.55c2.67,5.43,8.47,18.33,11.51,25.88h-14.65
  C374.35,101.34,370.94,93.15,368.55,87.89 M369.93,56.67c0-8.2-6.36-9.76-14.74-9.76h-6.08v20.45h11.79
  C366.43,66.71,369.93,62.84,369.93,56.67"/>
<path fill="#FFFFFF" d="M489.23,71.5c0-18.88,7-37.49,35.46-37.49c5.71,0,11.97,1.01,16.03,2.03l-2.21,12.34
  c-3.87-1.38-8.84-2.21-13.54-2.21c-14.37,0-21.09,9.21-21.09,25.61c0,15.48,7.74,23.31,21.46,23.31c4.33,0,10.59-0.92,14.28-2.21
  L541,105.4c-3.87,1.11-10.22,2.03-16.12,2.03c-28.19,0-35.65-17.23-35.65-35.83V71.5z"/>
<path fill="#FFFFFF" d="M558.59,70.48c0-17.13,7.65-36.75,33.53-36.75c25.98,0,33.62,19.62,33.62,36.85c0,17.32-7.46,37.4-33.53,37.4
  c-25.05,0-33.62-18.79-33.62-37.4V70.48z M573.15,70.48c0,18.7,8.11,25.33,18.97,25.33c11.15,0,19.07-6.82,19.07-25.42
  c0-17.59-7.28-24.69-18.98-24.69c-11.79,0-19.07,7.09-19.07,24.69V70.48z"/>
<polygon fill="#FFFFFF" points="688.11,103.09 676.05,103.09 659.19,52.06 657.25,106.13 644.27,106.13 647.95,35.39 666.1,35.39 
  682.59,85.68 698.71,35.39 717.5,35.39 721.18,106.13 707.36,106.13 705.15,52.06"/>
<path fill="#FFFFFF" d="M446.94,35.39h-6.36h-6.35l-27.08,70.74h14.46l5.74-17.04h26.48l5.74,17.04h14.46L446.94,35.39z M445.87,72.48
  l3.72,10.69l-9.01-6.85l-9.01,6.85l3.72-10.69L426,66.02l11.32,0.24l3.27-10.83l3.27,10.83l11.31-0.24L445.87,72.48z"/>
</svg>
